<svg xmlns="http://www.w3.org/2000/svg" viewBox="0 0 108 108"><defs><linearGradient id="blue" x2="0" y2="1"><stop stop-color="#0754c9"/><stop offset=".5" stop-color="#1686ed"/><stop offset="1" stop-color="#40bcec"/></linearGradient><linearGradient id="voice" x2=".4" y2="1"><stop stop-color="#fff"/><stop offset=".55" stop-color="#edfaff"/><stop offset="1" stop-color="#acdfff"/></linearGradient></defs><rect width="108" height="108" rx="25" fill="url(#blue)"/><path fill="url(#voice)" stroke="#fff" stroke-opacity=".6" stroke-width=".7" d="M18,53 C28,53 25,40 33,40 C41,40 39,63 44,63 C49,63 47,31 54,31 C61,31 59,63 64,63 C69,63 67,40 75,40 C83,40 80,53 90,53 L90,57 C80,57 83,66 75,66 C67,66 69,47 64,47 C59,47 61,77 54,77 C47,77 49,47 44,47 C39,47 41,66 33,66 C25,66 28,57 18,57 Z"/></svg>
